<?xml version="1.0" encoding="UTF-8"?>
<svg width="23px" height="23px" viewBox="0 0 23 23" version="1.1" xmlns="http://www.w3.org/2000/svg" xmlns:xlink="http://www.w3.org/1999/xlink">
    <!-- Generator: Sketch 53.2 (72643) - https://sketchapp.com -->
    <title>check</title>
    <desc>Created with Sketch.</desc>
    <g id="Page-1" stroke="none" stroke-width="1" fill="none" fill-rule="evenodd">
        <g id="Match-profil---results" transform="translate(-660.000000, -268.000000)" fill-rule="nonzero">
            <g id="check" transform="translate(660.000000, 268.000000)">
                <path d="M11.5,0 C5.15864565,0 0,5.15864565 0,11.5 C0,17.8413543 5.15864565,23 11.5,23 C17.8413543,23 23,17.8413543 23,11.5 C23,5.15864565 17.8413543,0 11.5,0 Z" id="Path" fill="#56A57B"></path>
                <path d="M17.2602886,9.05101575 L11.0066049,15.3108928 C10.8189891,15.4986997 10.5727104,15.5932203 10.3264316,15.5932203 C10.0801528,15.5932203 9.83387408,15.4986997 9.6462583,15.3108928 L6.51950457,12.1809543 C6.14321599,11.8044588 6.14321599,11.1957175 6.51950457,10.8192221 C6.89561695,10.4425502 7.5035626,10.4425502 7.87985118,10.8192221 L10.3264316,13.2682945 L15.899942,7.68928355 C16.2760543,7.3126117 16.884,7.3126117 17.2602886,7.68928355 C17.636401,8.06577902 17.636401,8.6743439 17.2602886,9.05101575 Z" id="Path" fill="#FFFFFF"></path>
            </g>
        </g>
    </g>
</svg>